<?xml version="1.0" encoding="UTF-8" standalone="no"?>
<!-- Created with Inkscape (http://www.inkscape.org/) -->

<svg
   xmlns:dc="http://purl.org/dc/elements/1.1/"
   xmlns:cc="http://creativecommons.org/ns#"
   xmlns:rdf="http://www.w3.org/1999/02/22-rdf-syntax-ns#"
   xmlns:svg="http://www.w3.org/2000/svg"
   xmlns="http://www.w3.org/2000/svg"
   xmlns:sodipodi="http://sodipodi.sourceforge.net/DTD/sodipodi-0.dtd"
   xmlns:inkscape="http://www.inkscape.org/namespaces/inkscape"
   width="220.76192mm"
   height="123.28494mm"
   viewBox="0 0 220.76192 123.28494"
   version="1.1"
   id="svg8"
   inkscape:version="0.92.3 (2405546, 2018-03-11)"
   sodipodi:docname="injection.svg"
   inkscape:export-filename="/home/sven/ideaprojects/automaton/injection.png"
   inkscape:export-xdpi="99.922989"
   inkscape:export-ydpi="99.922989">
  <defs
     id="defs2">
    <marker
       inkscape:isstock="true"
       style="overflow:visible"
       id="marker5674"
       refX="0"
       refY="0"
       orient="auto"
       inkscape:stockid="Arrow1Send">
      <path
         transform="matrix(-0.2,0,0,-0.2,-1.2,0)"
         style="fill:#000000;fill-opacity:1;fill-rule:evenodd;stroke:#000000;stroke-width:1.00000003pt;stroke-opacity:1"
         d="M 0,0 5,-5 -12.5,0 5,5 Z"
         id="path5672"
         inkscape:connector-curvature="0" />
    </marker>
    <marker
       inkscape:isstock="true"
       style="overflow:visible"
       id="marker5664"
       refX="0"
       refY="0"
       orient="auto"
       inkscape:stockid="Arrow1Send">
      <path
         transform="matrix(-0.2,0,0,-0.2,-1.2,0)"
         style="fill:#000000;fill-opacity:1;fill-rule:evenodd;stroke:#000000;stroke-width:1.00000003pt;stroke-opacity:1"
         d="M 0,0 5,-5 -12.5,0 5,5 Z"
         id="path5662"
         inkscape:connector-curvature="0" />
    </marker>
    <marker
       inkscape:isstock="true"
       style="overflow:visible"
       id="marker5568"
       refX="0"
       refY="0"
       orient="auto"
       inkscape:stockid="Arrow1Mend">
      <path
         transform="matrix(-0.4,0,0,-0.4,-4,0)"
         style="fill:#000000;fill-opacity:1;fill-rule:evenodd;stroke:#000000;stroke-width:1.00000003pt;stroke-opacity:1"
         d="M 0,0 5,-5 -12.5,0 5,5 Z"
         id="path5566"
         inkscape:connector-curvature="0" />
    </marker>
    <marker
       inkscape:isstock="true"
       style="overflow:visible"
       id="marker5558"
       refX="0"
       refY="0"
       orient="auto"
       inkscape:stockid="Arrow1Mend">
      <path
         transform="matrix(-0.4,0,0,-0.4,-4,0)"
         style="fill:#000000;fill-opacity:1;fill-rule:evenodd;stroke:#000000;stroke-width:1.00000003pt;stroke-opacity:1"
         d="M 0,0 5,-5 -12.5,0 5,5 Z"
         id="path5556"
         inkscape:connector-curvature="0" />
    </marker>
    <marker
       inkscape:isstock="true"
       style="overflow:visible"
       id="marker5480"
       refX="0"
       refY="0"
       orient="auto"
       inkscape:stockid="Arrow2Lend">
      <path
         transform="matrix(-1.1,0,0,-1.1,-1.1,0)"
         d="M 8.7185878,4.0337352 -2.2072895,0.01601326 8.7185884,-4.0017078 c -1.7454984,2.3720609 -1.7354408,5.6174519 -6e-7,8.035443 z"
         style="fill:#000000;fill-opacity:1;fill-rule:evenodd;stroke:#000000;stroke-width:0.625;stroke-linejoin:round;stroke-opacity:1"
         id="path5478"
         inkscape:connector-curvature="0" />
    </marker>
    <marker
       inkscape:isstock="true"
       style="overflow:visible"
       id="marker5458"
       refX="0"
       refY="0"
       orient="auto"
       inkscape:stockid="Arrow2Lend">
      <path
         transform="matrix(-1.1,0,0,-1.1,-1.1,0)"
         d="M 8.7185878,4.0337352 -2.2072895,0.01601326 8.7185884,-4.0017078 c -1.7454984,2.3720609 -1.7354408,5.6174519 -6e-7,8.035443 z"
         style="fill:#000000;fill-opacity:1;fill-rule:evenodd;stroke:#000000;stroke-width:0.625;stroke-linejoin:round;stroke-opacity:1"
         id="path5456"
         inkscape:connector-curvature="0" />
    </marker>
    <inkscape:path-effect
       effect="spiro"
       id="path-effect5009"
       is_visible="true" />
    <inkscape:path-effect
       is_visible="true"
       id="path-effect4965"
       effect="spiro" />
    <inkscape:path-effect
       effect="spiro"
       id="path-effect4961"
       is_visible="true" />
    <inkscape:path-effect
       effect="spiro"
       id="path-effect4888"
       is_visible="true" />
    <inkscape:path-effect
       effect="spiro"
       id="path-effect4884"
       is_visible="true" />
    <inkscape:path-effect
       effect="spiro"
       id="path-effect4777"
       is_visible="true" />
  </defs>
  <sodipodi:namedview
     id="base"
     pagecolor="#ffffff"
     bordercolor="#666666"
     borderopacity="1.0"
     inkscape:pageopacity="0.0"
     inkscape:pageshadow="2"
     inkscape:zoom="1.6"
     inkscape:cx="562.41958"
     inkscape:cy="271.25977"
     inkscape:document-units="mm"
     inkscape:current-layer="layer1"
     showgrid="false"
     inkscape:snap-global="false"
     inkscape:window-width="1920"
     inkscape:window-height="1025"
     inkscape:window-x="0"
     inkscape:window-y="27"
     inkscape:window-maximized="1" />
  <metadata
     id="metadata5">
    <rdf:RDF>
      <cc:Work
         rdf:about="">
        <dc:format>image/svg+xml</dc:format>
        <dc:type
           rdf:resource="http://purl.org/dc/dcmitype/StillImage" />
        <dc:title></dc:title>
      </cc:Work>
    </rdf:RDF>
  </metadata>
  <g
     inkscape:label="Layer 1"
     inkscape:groupmode="layer"
     id="layer1"
     transform="translate(-75.428452,-80.52422)">
    <g
       id="g4906"
       style="stroke-width:1.80149043;stroke-linecap:round;stroke-linejoin:round"
       transform="matrix(0.55457272,0,0,0.55561967,57.922612,60.759642)">
      <path
         style="color:#000000;display:inline;overflow:visible;visibility:visible;opacity:1;vector-effect:none;fill:#e0e0e0;fill-opacity:1;fill-rule:evenodd;stroke:#000000;stroke-width:1.90657723;stroke-linecap:round;stroke-linejoin:round;stroke-miterlimit:4;stroke-dasharray:none;stroke-dashoffset:0;stroke-opacity:1;marker:none;enable-background:accumulate"
         d="m 44.601413,95.916624 c 0,36.285636 0,72.571286 0,108.856926 27.466194,0 54.932391,0 82.398587,0 0,-32.13947 0,-64.27894 0,-96.41841 -4.14617,-4.14617 -8.29235,-8.29234 -12.43852,-12.438516 -23.320022,0 -46.640045,0 -69.960067,0 z"
         id="rect4747"
         inkscape:connector-curvature="0" />
      <path
         style="color:#000000;display:inline;overflow:visible;visibility:visible;fill:#e0e0e0;fill-opacity:1;fill-rule:evenodd;stroke:#000000;stroke-width:1.90657711;stroke-linecap:round;stroke-linejoin:round;stroke-miterlimit:4;stroke-dasharray:none;stroke-dashoffset:0;stroke-opacity:1;marker:none;enable-background:accumulate"
         d="m 114.56148,95.916626 c 4.14617,4.146174 8.29235,8.292344 12.43852,12.438514 -4.14617,0 -8.29235,0 -12.43852,0 0,-4.14617 0,-8.29234 0,-12.438514 z"
         id="rect4752"
         inkscape:connector-curvature="0" />
    </g>
    <text
       xml:space="preserve"
       style="font-style:normal;font-variant:normal;font-weight:normal;font-stretch:condensed;font-size:17.08246994px;line-height:125%;font-family:Impact;-inkscape-font-specification:'Impact, Condensed';font-variant-ligatures:normal;font-variant-caps:normal;font-variant-numeric:normal;font-feature-settings:normal;text-align:center;letter-spacing:0px;word-spacing:0px;writing-mode:lr-tb;text-anchor:middle;fill:#000000;fill-opacity:1;stroke:none;stroke-width:0.26458332px;stroke-linecap:round;stroke-linejoin:round;stroke-opacity:1"
       x="106.0825"
       y="143.51561"
       id="text4771"
       transform="scale(0.99905737,1.0009435)"><tspan
         sodipodi:role="line"
         id="tspan4769"
         x="106.0825"
         y="143.51561"
         style="font-style:normal;font-variant:normal;font-weight:normal;font-stretch:normal;font-size:3.66052914px;font-family:'Bitstream Vera Sans Mono';-inkscape-font-specification:'Bitstream Vera Sans Mono, Normal';font-variant-ligatures:normal;font-variant-caps:normal;font-variant-numeric:normal;font-feature-settings:normal;text-align:center;writing-mode:lr-tb;text-anchor:middle;stroke-width:0.26458332px;stroke-linecap:round;stroke-linejoin:round">injection( Q_Foo )</tspan></text>
    <path
       style="color:#000000;clip-rule:nonzero;display:inline;overflow:visible;visibility:visible;opacity:1;isolation:auto;mix-blend-mode:normal;color-interpolation:sRGB;color-interpolation-filters:linearRGB;solid-color:#000000;solid-opacity:1;vector-effect:none;fill:#56a6cf;fill-opacity:0.38153848;fill-rule:nonzero;stroke:#56a6cf;stroke-width:1.05833328;stroke-linecap:round;stroke-linejoin:round;stroke-miterlimit:4;stroke-dasharray:none;stroke-dashoffset:0;stroke-opacity:1;marker:none;paint-order:normal;color-rendering:auto;image-rendering:auto;shape-rendering:auto;text-rendering:auto;enable-background:accumulate"
       d="m 233.86965,84.795355 c -0.27027,0.0013 -0.54102,0.0079 -0.81237,0.01991 -8.489,0.04485 -16.38462,5.104184 -20.83575,12.207822 -0.42988,-0.02581 -0.86136,-0.03947 -1.29317,-0.04095 -2.12461,0.0034 -4.22204,0.301767 -6.14377,0.873874 -10.34719,-3.929756 -23.29002,0.785265 -29.59123,9.863139 -2.80068,4.26255 -4.64087,9.29292 -5.13827,14.34363 -0.0496,2.19302 0.4048,4.45621 0.87684,6.72421 -0.85661,2.47267 -1.30624,5.25094 -1.30694,8.07554 0.004,1.70166 0.17087,3.39238 0.49496,5.01374 -0.007,0.009 -0.0118,0.0184 -0.0181,0.0276 -4.73248,7.61191 -6.06143,18.15446 -1.17251,26.04249 14.82291,10.22492 33.74114,10.12067 50.98244,8.78652 19.37544,-1.80802 38.92227,-2.20637 58.11499,-5.64362 7.45805,-3.90102 8.26075,-13.43168 7.8714,-20.9082 -0.33378,-4.47624 -1.75457,-8.93956 -4.02156,-12.91879 4.52797,-3.42525 7.08394,-8.13625 7.08437,-13.05744 -1e-5,-10.04441 -10.4342,-18.18701 -23.30542,-18.18701 -2.17016,0.002 -4.32928,0.2411 -6.41478,0.70953 -0.70461,-3.65567 -2.01806,-7.114558 -4.60964,-10.098081 -4.57607,-6.834357 -12.38347,-11.874483 -20.76147,-11.833875 z"
       id="path4924"
       inkscape:connector-curvature="0"
       sodipodi:nodetypes="cccccccccccccccccccccc" />
    <path
       style="opacity:1;vector-effect:none;fill:#c38760;fill-opacity:1;fill-rule:evenodd;stroke:#000000;stroke-width:0.79374999;stroke-linecap:round;stroke-linejoin:round;stroke-miterlimit:4;stroke-dasharray:none;stroke-dashoffset:0;stroke-opacity:1;marker:none"
       d="m 181.48397,148.50262 0.60644,14.53141 2.22635,5.06041 -0.12342,-13.36151"
       id="path4802"
       inkscape:connector-curvature="0" />
    <path
       style="opacity:1;vector-effect:none;fill:#855c40;fill-opacity:1;fill-rule:evenodd;stroke:#000000;stroke-width:1.05833328;stroke-linecap:round;stroke-linejoin:round;stroke-miterlimit:4;stroke-dasharray:none;stroke-dashoffset:0;stroke-opacity:1;marker:none"
       d="m 184.31676,168.09444 18.92945,-1.30863 0.94304,-13.43523 -10.85104,0.71428 -0.33091,-0.31419 -8.81396,0.98226 z"
       id="path4804"
       inkscape:connector-curvature="0"
       sodipodi:nodetypes="ccccccc" />
    <path
       style="opacity:1;vector-effect:none;fill:#ddbaa5;fill-opacity:1;fill-rule:evenodd;stroke:#000000;stroke-width:0.79374999;stroke-linecap:round;stroke-linejoin:round;stroke-miterlimit:4;stroke-dasharray:none;stroke-dashoffset:0;stroke-opacity:1;marker:none"
       d="m 181.48397,148.50262 7.76763,-0.69954 0.16408,0.1512 7.93171,-0.54833 6.84186,5.94463 -19.99591,1.38235 z"
       id="path4800"
       inkscape:connector-curvature="0"
       sodipodi:nodetypes="ccccccc" />
    <path
       style="opacity:1;vector-effect:none;fill:#e0e0e0;fill-opacity:1;fill-rule:evenodd;stroke:#000000;stroke-width:1.05833328;stroke-linecap:round;stroke-linejoin:round;stroke-miterlimit:4;stroke-dasharray:none;stroke-dashoffset:0;stroke-opacity:1;marker:none"
       d="m 189.28414,147.95147 4.08885,5.87945"
       id="path4806"
       inkscape:connector-curvature="0"
       sodipodi:nodetypes="cc" />
    <path
       style="fill:#000000;stroke-width:1;stroke-linecap:round;stroke-linejoin:round"
       d="m 208.54483,164.44758 c 0.0538,-0.28169 0.25038,0.14331 0,0 z m -15.833,0.52255 c -0.37171,-0.31755 -0.0257,-0.94827 -0.29258,-0.94881 0.003,-0.85648 -0.32501,-0.21867 -0.81694,-0.20184 -0.34664,0.15256 -0.34118,0.21203 -0.37203,0.3418 -0.0717,0.39515 -0.29571,0.57065 -0.69832,0.97713 -0.9389,-0.17704 0.40478,-0.83929 0.0351,-1.30182 -0.0582,-0.0437 0.3649,-0.0336 0.15661,-0.41355 0.0478,-0.57017 0.44905,-0.31502 0.34269,-0.88512 -0.0564,-0.34585 0.32713,-0.11761 0.25921,-0.49079 0.1227,-0.19846 0.083,-0.80019 0.46532,-0.94489 0.76997,-0.19766 0.49184,0.95431 0.77414,1.37954 -0.0231,0.44626 0.25043,0.57584 0.42356,0.63625 -0.47995,0.48974 0.28429,1.03143 0.73899,0.8244 0.15372,-0.37685 -1.07178,-1.4558 -0.29661,-1.51465 0.50042,-0.14304 1.24066,0.713 0.34757,0.41686 -0.44586,0.40541 1.16591,1.08391 0.50866,1.55266 -0.33021,0.21198 -1.19131,-0.40986 -1.4211,-0.24647 0.0362,-0.17686 0.52122,1.26574 -0.15432,0.8193 z m 0.21079,-0.17362 c -0.0365,-0.27983 -0.10639,0.31936 0,0 z m 0.0542,-0.1133 c -0.11784,-0.14931 0.0225,0.14535 0,0 z m -0.0334,-0.287 c -0.0833,-0.11717 0.0106,0.16113 0,0 z m -0.9743,-1.07864 c 0.42991,-0.0385 0.18729,-0.72354 0.0335,-0.89908 -0.0549,-0.72551 -0.24829,-0.5214 -0.36455,-0.039 0.0727,0.62998 -0.54926,1.15273 0.331,0.938 z m -0.56696,-0.0301 c -0.11737,-0.57361 -0.11271,0.15615 -9e-5,-2e-5 z m 0.10481,-0.30339 c 0.0691,-0.3774 -0.19445,0.30202 0,0 z m -0.10575,-0.0761 c -0.0668,-0.0798 -0.021,0.0899 0,0 z m 0.17732,-0.17688 c -0.0913,-0.25424 -0.16961,0.14607 0,0 z m -0.40133,-0.0709 c -0.12201,-0.24413 0.0601,0.3535 0,0 z m -1.10735,2.36093 c 0.0324,-0.2437 0.12116,0.10978 0,0 z m 6.80313,-0.86705 c -0.93916,0.11905 -1.35585,-1.59188 -0.30669,-1.65761 0.27413,-0.3079 1.26089,0.1024 1.11015,-0.51215 -0.30103,0.11535 0.15278,-0.37993 -0.19991,-0.36845 -0.0361,-0.41227 0.14593,-0.64227 -0.0618,-0.67051 -0.0483,-0.4484 -0.43509,-0.72378 -0.074,-0.84594 0.14168,-0.5978 0.35313,-1.18927 0.53405,-1.73779 0.43541,-0.41791 1.95501,0.60169 1.10775,1.0706 -0.37398,-0.0152 -0.90456,-0.14851 -0.90534,0.035 -0.13027,-0.38552 -0.10173,0.80771 -0.2513,0.88498 -0.1531,0.59779 0.32782,1.4033 0.42975,1.85383 0.51863,-0.329 0.40692,0.142 -0.0334,0.2592 -0.13933,0.47563 0.44531,0.55497 0.83227,0.55609 0.36616,0.0887 1.16648,0.29498 1.37397,0.005 -0.40788,-0.34403 -1.16357,-0.49246 -1.23395,-1.07547 -0.21539,-0.32813 0.15479,-0.58994 0.10247,-0.78145 0.20582,0.0266 0.12248,-0.27462 0.41824,-0.26829 0.21257,-0.0842 1.3655,0.422 1.03135,0.5678 -0.55624,-0.15276 -1.3681,-0.21896 -1.137,0.64376 0.36446,0.59394 1.52015,0.57704 1.50322,1.35085 -0.3709,0.31662 -0.67449,0.0266 -1.04863,0.0837 -0.26706,-0.0593 -1.14913,-0.14784 -1.6448,-0.32899 -0.15411,0.2406 0.25942,0.86605 -0.30686,0.48012 -0.19022,-0.64887 -0.62914,0.76617 -1.23955,0.45629 z m 0.40171,-0.26529 c 0.66033,-0.13711 0.51154,-0.89085 0.56429,-1.1339 0.24895,-0.30063 -0.22598,0.0909 -0.28521,-0.10798 -0.27739,-0.0282 -0.10462,0.65132 -0.31525,0.22389 -0.18425,-0.19468 -0.2957,0.64152 -0.74119,0.55781 0.0477,0.39213 0.42749,0.56657 0.77736,0.46018 z m 0.17299,-1.13511 c 0.0538,-0.0911 0.0685,0.0804 0,0 z m 0.50799,0.28 c -0.0752,-0.20202 -0.038,0.21214 0,0 z m 0.0484,-0.40198 c -0.0367,-0.0849 -0.0515,0.0904 0,0 z m -0.22347,-0.89388 c -0.0921,-0.37303 0.01,0.3402 0,0 z m 0.20288,-0.009 c -0.0822,-0.0801 -0.0346,0.12447 0,0 z m 1.689,-0.28194 c -0.0691,-0.0804 -0.0532,0.0912 0,0 z m -1.97687,0.0334 c -0.12143,-0.26916 -0.0549,0.23705 0,0 z m 0.009,-0.35081 c -0.0996,-0.0843 -0.11239,0.12362 0,0 z m 0.64136,-2.26446 c 0.76789,-0.0409 -0.088,-0.5719 -0.0816,-5e-4 l 0.0351,0.0256 0.0465,-0.025 z m -3.18789,5.41923 c -0.45446,0.0289 -1.1703,-0.79594 -0.27031,-0.48214 0.50208,0.39339 0.80455,-0.32258 0.1599,-0.49222 -0.71161,-0.2949 -0.74477,-1.60261 0.22619,-1.08479 0.86524,0.53162 -0.82079,-0.14343 -0.36872,0.54709 0.29315,0.4334 1.72438,1.10201 0.65489,1.47844 -0.13308,0.0163 -0.26719,0.0466 -0.40195,0.0336 z M 197.562,162.141 c 0.0515,-0.0904 0.0367,0.0849 0,0 z m -9.39568,-0.24057 c -0.61083,-0.0894 -1.26796,-0.51022 -1.36139,-1.16039 0.14399,-0.47025 1.36398,-0.42915 1.2343,-1.13778 0.0471,-0.5676 -0.15867,-1.20367 -0.77623,-0.73652 -0.30709,0.2223 -0.85085,0.13879 -0.23648,-0.10572 0.53325,-0.4262 1.32392,-0.32427 1.20211,0.5208 0.005,0.26447 0.0511,0.48379 0.2321,0.28506 -0.23326,0.33567 -0.15528,0.71017 -0.10864,1.10194 -0.0697,0.32035 0.28594,1.19556 -0.18577,1.23261 z m -0.16478,-0.55891 c 0.18682,-0.39315 0.27036,-1.55905 -0.3552,-0.90711 -0.6031,0.16212 -0.5699,0.63184 -0.0552,0.834 0.0987,-0.01 0.35736,0.19493 0.41036,0.0731 z m -0.55114,-0.22285 c 0.0295,-0.11516 0.0868,0.0338 0,0 z m -0.45586,-0.37184 c 0.16682,-0.14411 -0.18776,0.0345 0,0 z m 12.62085,-0.80109 c -0.30385,-0.51392 -0.14709,-1.05396 -0.12664,-1.63892 -0.11977,-0.58069 0.257,-1.12975 0.39596,-1.57717 0.3727,0.41255 -0.26835,1.21067 0.57682,1.16641 0.87781,0.17792 -0.50806,0.16883 -0.58652,0.31706 -0.16982,0.57423 0.0704,1.35685 -0.15478,1.81305 l -0.10505,-0.0805 z m 0.17784,-0.26143 c -0.10317,-0.0437 -0.004,0.24181 0,0 z m -7.85466,0.79792 c -0.17177,-0.19634 0.21416,0.075 0,0 z m 6.03257,-0.63714 c 0.0744,-0.38826 0.0547,0.31189 0,0 z m -8.94571,0.66988 c -0.78744,-0.11452 0.0779,-1.90736 0.10186,-0.86151 -0.62438,0.72522 0.31964,0.98908 0.56241,0.24874 -0.16677,-0.36275 -0.36637,-0.9448 0.0839,-0.33001 0.0793,0.49172 0.73898,0.57186 0.8843,0.43587 -0.0444,0.83233 -0.99539,-0.40467 -1.08762,0.33775 -0.1326,0.145 -0.34799,0.28188 -0.54482,0.16916 z m 5.95437,-0.50624 c -0.56339,-0.11878 -1.1604,-0.10543 -1.69793,-0.44518 -0.44106,-0.0954 -0.62504,-0.77099 0.0101,-0.35801 0.27261,-0.15142 0.69733,0.62242 0.51485,-0.0136 -0.40376,-0.25321 -0.27082,-1.24934 0.007,-0.50021 0.0254,0.41102 0.61392,1.04064 0.40032,0.24817 -0.22364,-0.82962 1.02827,-0.8442 1.13479,-0.22971 -0.7962,-0.46982 -1.21507,0.99657 -0.3894,1.09584 -0.0516,-0.28637 0.53077,-0.23403 0.61859,-0.39919 0.11634,-0.1348 0.38321,-1.35895 0.7313,-0.62705 0.2763,-0.26144 0.86753,-0.36654 0.29567,0.035 -0.44225,0.60304 -0.83142,0.93164 -1.48484,1.17428 l -0.0788,0.0146 -0.0612,0.005 z m 0.3062,-0.26733 c -0.0455,-0.12177 -0.27203,0.0907 0,0 z m -3.27359,0.43307 c -0.47378,-0.25522 -0.27163,-1.76568 -0.64851,-0.64923 -0.007,0.59055 -0.59851,0.70039 -0.6295,0.0573 -0.20687,-0.33174 -0.3403,-0.83235 0.0736,-0.33462 0.32192,0.94565 0.50734,-0.92921 0.96513,-0.72397 -0.0625,0.28734 1.01174,0.19142 0.31926,0.41845 -0.49168,0.23296 0.0316,1.66429 0.29288,0.66716 0.12129,-0.34859 0.0398,-1.53986 0.37109,-0.58389 -0.0521,0.34415 0.74933,1.50301 0.0246,0.89535 -0.34895,-0.83162 -0.20998,0.5592 -0.76857,0.25352 z m 5.15532,-0.54714 c -0.53373,-0.30183 0.25902,-1.76144 0.21922,-0.67564 -0.16541,0.13835 0.0633,0.90437 -0.21922,0.67564 z m 0.22844,-0.14521 c 0.0346,-0.12447 0.0822,0.0801 0,0 z m 0.27357,-1.79693 c -0.56667,0.0563 -0.77249,-1.41267 -0.25894,-0.54354 -0.10397,0.16699 0.61618,0.65302 0.25894,0.54354 z"
       id="path4851"
       inkscape:connector-curvature="0" />
    <g
       id="g4912"
       transform="matrix(0.20801159,0,0,0.20934757,172.03635,95.444394)"
       style="stroke-width:4.79206038;stroke-linecap:round;stroke-linejoin:round">
      <path
         style="color:#000000;display:inline;overflow:visible;visibility:visible;opacity:1;vector-effect:none;fill:#e0e0e0;fill-opacity:1;fill-rule:evenodd;stroke:#000000;stroke-width:19.16823959;stroke-linecap:round;stroke-linejoin:round;stroke-miterlimit:4;stroke-dasharray:none;stroke-dashoffset:0;stroke-opacity:1;marker:none;enable-background:accumulate"
         d="M 168.57227,362.51953 V 773.94727 H 480 V 409.53125 l -47.01172,-47.01172 z"
         id="path4908"
         transform="scale(0.26458333)"
         inkscape:connector-curvature="0" />
      <path
         style="color:#000000;display:inline;overflow:visible;visibility:visible;fill:#e0e0e0;fill-opacity:1;fill-rule:evenodd;stroke:#000000;stroke-width:5.0715971;stroke-linecap:round;stroke-linejoin:round;stroke-miterlimit:4;stroke-dasharray:none;stroke-dashoffset:0;stroke-opacity:1;marker:none;enable-background:accumulate;font-variant-east_asian:normal;opacity:1;vector-effect:none"
         d="m 111.79504,95.72091 15.2068,15.19958 h -15.2068 z"
         id="path4910"
         inkscape:connector-curvature="0"
         sodipodi:nodetypes="cccc" />
    </g>
    <text
       xml:space="preserve"
       style="font-style:normal;font-variant:normal;font-weight:normal;font-stretch:normal;font-size:4.19876575px;line-height:125%;font-family:'Bitstream Vera Sans';-inkscape-font-specification:'Bitstream Vera Sans, Normal';font-variant-ligatures:normal;font-variant-caps:normal;font-variant-numeric:normal;font-feature-settings:normal;text-align:center;letter-spacing:0px;word-spacing:0px;writing-mode:lr-tb;text-anchor:middle;fill:#000000;fill-opacity:1;stroke:none;stroke-width:0.26458329px;stroke-linecap:round;stroke-linejoin:round;stroke-opacity:1"
       x="190.80882"
       y="128.04066"
       id="text4781"
       transform="scale(0.99568284,1.0043359)"><tspan
         sodipodi:role="line"
         id="tspan4779"
         x="190.80882"
         y="128.04066"
         style="stroke-width:0.26458329px;stroke-linecap:round;stroke-linejoin:round">JSON</tspan></text>
    <path
       style="color:#000000;font-style:normal;font-variant:normal;font-weight:normal;font-stretch:normal;font-size:medium;line-height:normal;font-family:sans-serif;font-variant-ligatures:normal;font-variant-position:normal;font-variant-caps:normal;font-variant-numeric:normal;font-variant-alternates:normal;font-feature-settings:normal;text-indent:0;text-align:start;text-decoration:none;text-decoration-line:none;text-decoration-style:solid;text-decoration-color:#000000;letter-spacing:normal;word-spacing:normal;text-transform:none;writing-mode:lr-tb;direction:ltr;text-orientation:mixed;dominant-baseline:auto;baseline-shift:baseline;text-anchor:start;white-space:normal;shape-padding:0;clip-rule:nonzero;display:inline;overflow:visible;visibility:visible;opacity:1;isolation:auto;mix-blend-mode:normal;color-interpolation:sRGB;color-interpolation-filters:linearRGB;solid-color:#000000;solid-opacity:1;vector-effect:none;fill:#e0e0e0;fill-opacity:1;fill-rule:evenodd;stroke:#000000;stroke-width:1.05833328;stroke-linecap:round;stroke-linejoin:round;stroke-miterlimit:4;stroke-dasharray:none;stroke-dashoffset:0;stroke-opacity:1;marker:none;paint-order:normal;color-rendering:auto;image-rendering:auto;shape-rendering:auto;text-rendering:auto;enable-background:accumulate"
       d="m 167.32209,130.30972 c 0.30095,0.62519 0.60191,1.25038 0.90286,1.87557 -3.48076,1.8469 -6.96347,3.75265 -10.7891,4.80019 -3.88056,1.1423 -7.84803,2.11133 -11.86419,2.57764 -4.72455,0 -9.4491,0 -14.17365,0 0,3.38347 0,6.76694 0,10.15041 4.86979,0 9.73959,0 14.60938,0 6.90305,1.17665 13.91605,2.75516 20.00949,6.34763 0.74338,0.40459 1.48677,0.80917 2.23015,1.21376 -0.32016,0.63429 -0.64033,1.26857 -0.96049,1.90286 3.01045,-1.05497 6.0209,-2.10993 9.03135,-3.1649 -0.68241,-3.21033 -1.36481,-6.42067 -2.04722,-9.631 -0.38742,0.65877 -0.77485,1.31754 -1.16227,1.97631 -2.38642,-1.27083 -4.70855,-2.67471 -7.2221,-3.68944 2.47902,-0.982 4.78464,-2.32747 7.15267,-3.54048 0.27425,0.48673 0.60486,1.52704 0.84402,1.66911 0.74368,-3.18731 1.48735,-6.37462 2.23103,-9.56193 -2.93064,-0.97524 -5.86129,-1.95049 -8.79193,-2.92573 z"
       id="path5059"
       inkscape:connector-curvature="0" />
    <text
       xml:space="preserve"
       style="font-style:normal;font-variant:normal;font-weight:bold;font-stretch:normal;font-size:13.84547003px;line-height:125%;font-family:'Bitstream Vera Sans';-inkscape-font-specification:'Bitstream Vera Sans, Bold';font-variant-ligatures:normal;font-variant-caps:normal;font-variant-numeric:normal;font-feature-settings:normal;text-align:center;letter-spacing:0px;word-spacing:0px;writing-mode:lr;text-anchor:middle;fill:#000000;fill-opacity:1;stroke:none;stroke-width:0.26458332px;stroke-linecap:butt;stroke-linejoin:miter;stroke-opacity:1;"
       x="240.02304"
       y="129.58179"
       id="text5104"
       transform="scale(1.0004596,0.99954061)"><tspan
         sodipodi:role="line"
         id="tspan5102"
         x="240.02304"
         y="129.58179"
         style="stroke-width:0.26458332px;-inkscape-font-specification:'Bitstream Vera Sans, Bold';font-family:'Bitstream Vera Sans';font-weight:bold;font-style:normal;font-stretch:normal;font-variant:normal;font-size:13.84547003px;text-anchor:middle;text-align:center;writing-mode:lr;font-variant-ligatures:normal;font-variant-caps:normal;font-variant-numeric:normal;font-feature-settings:normal;">Server</tspan></text>
    <rect
       style="color:#000000;display:inline;overflow:visible;visibility:visible;fill:#e0e0e0;fill-opacity:1;fill-rule:evenodd;stroke:#000000;stroke-width:0.52916664;stroke-linecap:butt;stroke-linejoin:miter;stroke-miterlimit:4;stroke-dasharray:none;stroke-dashoffset:0;stroke-opacity:1;marker:none;enable-background:accumulate"
       id="rect5121"
       width="26.025024"
       height="23.217447"
       x="210.72684"
       y="144.68941"
       rx="2.9806757" />
    <path
       style="fill:#000000;stroke-width:1.00000012"
       d="m 218.89342,161.44112 c -0.20799,-1.21029 -1.87771,-1.57299 -2.70157,-0.751 -0.8512,0.0213 -1.95339,-1.04209 -1.13075,-1.79295 0.44705,-0.87366 -0.028,-2.25324 -1.09283,-2.32245 -0.78111,0.004 -0.72215,-0.72846 -0.69442,-1.28009 -0.23825,-0.7812 0.6053,-0.69639 1.11198,-0.99266 1.02538,-0.53989 1.04337,-1.88462 0.40339,-2.73046 -0.0202,-0.96329 1.28441,-1.66085 2.06804,-0.86122 1.09298,0.39349 2.06417,-0.50746 2.18917,-1.60642 0.31413,-0.45662 0.93387,-0.21711 1.40407,-0.27743 0.77683,-0.0324 0.42548,1.43808 1.24579,1.67702 0.92706,0.87312 1.873,-0.43122 2.77557,-0.0653 0.64381,0.51055 0.93208,1.23864 0.31226,1.96215 -0.33896,0.98257 0.3792,2.06152 1.46698,2.1133 0.61642,0.20993 0.36535,0.92714 0.41761,1.41747 0.12639,0.82415 -1.29456,0.44992 -1.58796,1.17379 -0.88108,0.88357 0.0617,1.84569 0.0608,2.76819 -0.49603,0.70008 -1.28105,1.12054 -2.05329,0.44037 -1.09327,-0.39318 -2.06788,0.50103 -2.19194,1.60277 -0.31389,0.45717 -0.93394,0.21754 -1.40423,0.27786 -0.52424,0.13827 -0.39832,-0.40921 -0.59863,-0.75289 z m 1.49247,-3.32055 c 1.81091,-0.21209 2.91979,-2.62147 1.77661,-4.09027 -0.90791,-1.42126 -3.2256,-1.57769 -4.24158,-0.18979 -0.9844,1.15778 -0.70238,3.12877 0.6389,3.8935 0.52858,0.3532 1.19848,0.53293 1.82607,0.38656 z"
       id="path5117"
       inkscape:connector-curvature="0" />
    <path
       style="fill:#000000;stroke-width:1.00000012"
       d="m 227.74249,162.91064 c 0.19913,-1.23571 -1.33743,-1.07224 -1.94023,-1.35159 -0.74743,-0.85013 0.73768,-1.28881 0.4456,-2.09755 -0.23663,-0.68481 -1.33398,-1.26121 -0.40939,-1.92526 0.70258,-0.16492 1.65144,-0.20193 1.62862,-1.215 -0.38339,-0.85785 0.98264,-1.43251 1.42293,-0.65547 0.74264,0.94095 1.57156,-0.49913 2.25612,-0.49207 1.11998,0.15457 0.24963,1.59142 1.25908,1.85308 0.66398,0.20048 1.57044,-0.0791 1.52417,0.93157 -0.30411,0.63063 -1.10169,1.3088 -0.34473,2.04567 0.86929,0.34389 0.41106,1.63729 -0.46374,1.51406 -1.05809,-0.21924 -1.03102,1.24184 -1.13621,1.82154 -0.91778,0.882 -1.4284,-0.77838 -2.34403,-0.32695 -0.61843,0.42966 -1.2722,1.13133 -1.9153,0.29548 -0.0504,-0.13056 -0.0231,-0.27023 0.0171,-0.39751 z m 1.68975,-1.73808 c 1.33678,0.33939 2.63011,-1.32347 1.90883,-2.52486 -0.54855,-1.18726 -2.4469,-1.28155 -3.08836,-0.12563 -0.60756,0.97101 0.004,2.50207 1.17953,2.65049 z"
       id="path5119"
       inkscape:connector-curvature="0" />
    <text
       xml:space="preserve"
       style="font-style:normal;font-variant:normal;font-weight:normal;font-stretch:normal;font-size:4.81196785px;line-height:125%;font-family:'Bitstream Vera Sans';-inkscape-font-specification:'Bitstream Vera Sans, Normal';font-variant-ligatures:normal;font-variant-caps:normal;font-variant-numeric:normal;font-feature-settings:normal;text-align:center;letter-spacing:0px;word-spacing:0px;writing-mode:lr-tb;text-anchor:middle;fill:#000000;fill-opacity:1;stroke:none;stroke-width:0.26458332px;stroke-linecap:butt;stroke-linejoin:miter;stroke-opacity:1"
       x="149.63829"
       y="146.18211"
       id="text5130"
       transform="scale(1.0001242,0.99987585)"><tspan
         sodipodi:role="line"
         x="149.63829"
         y="146.18211"
         style="stroke-width:0.26458332px"
         id="tspan5756">Webpack</tspan></text>
    <g
       id="g7287"
       style="fill:#000000;fill-opacity:0.69538461;stroke:none;stroke-opacity:1;stroke-width:14.28482914;stroke-miterlimit:4;stroke-dasharray:none;font-variant-east_asian:normal;opacity:1;vector-effect:none;stroke-linecap:round;stroke-linejoin:round;stroke-dashoffset:0;marker:none">
      <path
         style="color:#000000;font-style:normal;font-variant:normal;font-weight:normal;font-stretch:normal;font-size:medium;line-height:normal;font-family:sans-serif;font-variant-ligatures:normal;font-variant-position:normal;font-variant-caps:normal;font-variant-numeric:normal;font-variant-alternates:normal;font-feature-settings:normal;text-indent:0;text-align:start;text-decoration:none;text-decoration-line:none;text-decoration-style:solid;text-decoration-color:#000000;letter-spacing:normal;word-spacing:normal;text-transform:none;writing-mode:lr-tb;direction:ltr;text-orientation:mixed;dominant-baseline:auto;baseline-shift:baseline;text-anchor:start;white-space:normal;shape-padding:0;clip-rule:nonzero;display:inline;overflow:visible;visibility:visible;opacity:1;isolation:auto;mix-blend-mode:normal;color-interpolation:sRGB;color-interpolation-filters:linearRGB;solid-color:#000000;solid-opacity:1;vector-effect:none;fill:#000000;fill-opacity:0.69538461;fill-rule:evenodd;stroke:none;stroke-width:53.98990609;stroke-linecap:round;stroke-linejoin:round;stroke-miterlimit:4;stroke-dasharray:none;stroke-dashoffset:0;stroke-opacity:1;marker:none;color-rendering:auto;image-rendering:auto;shape-rendering:auto;text-rendering:auto;enable-background:accumulate;font-variant-east_asian:normal"
         d="m 469.60742,182.43945 c -10e-4,6.5e-4 -0.003,0.001 -0.004,0.002 -1.70413,0.005 -2.62098,2.00345 -1.51368,3.29882 l 37.34571,45.2168 -2.81836,-0.26953 c 3.99855,2.74892 7.99797,5.49656 11.99609,8.24609 -1.94235,-4.44612 -3.88511,-8.89206 -5.82812,-13.33789 l -0.26758,2.8086 -37.3418,-45.21094 c -0.38029,-0.47754 -0.9579,-0.75519 -1.56836,-0.75391 z"
         transform="matrix(0.26458333,0,0,0.26458333,75.428452,80.52422)"
         id="path5163"
         inkscape:connector-curvature="0"
         sodipodi:nodetypes="ccccccccccc" />
    </g>
    <g
       id="g7279"
       style="fill:#000000;fill-opacity:0.69538462;stroke:none;stroke-opacity:1;stroke-width:3.77952766;stroke-miterlimit:4;stroke-dasharray:none;font-variant-east_asian:normal;opacity:1;vector-effect:none;stroke-linecap:round;stroke-linejoin:round;stroke-dashoffset:0;marker:none">
      <path
         style="color:#000000;font-style:normal;font-variant:normal;font-weight:normal;font-stretch:normal;font-size:medium;line-height:normal;font-family:sans-serif;font-variant-ligatures:normal;font-variant-position:normal;font-variant-caps:normal;font-variant-numeric:normal;font-variant-alternates:normal;font-feature-settings:normal;text-indent:0;text-align:start;text-decoration:none;text-decoration-line:none;text-decoration-style:solid;text-decoration-color:#000000;letter-spacing:normal;word-spacing:normal;text-transform:none;writing-mode:lr-tb;direction:ltr;text-orientation:mixed;dominant-baseline:auto;baseline-shift:baseline;text-anchor:start;white-space:normal;shape-padding:0;clip-rule:nonzero;display:inline;overflow:visible;visibility:visible;opacity:1;isolation:auto;mix-blend-mode:normal;color-interpolation:sRGB;color-interpolation-filters:linearRGB;solid-color:#000000;solid-opacity:1;vector-effect:none;fill:#000000;fill-opacity:0.69538462;fill-rule:evenodd;stroke:none;stroke-width:14.28482913;stroke-linecap:round;stroke-linejoin:round;stroke-miterlimit:4;stroke-dasharray:none;stroke-dashoffset:0;stroke-opacity:1;marker:none;color-rendering:auto;image-rendering:auto;shape-rendering:auto;text-rendering:auto;enable-background:accumulate;font-variant-east_asian:normal"
         d="m 653.33398,270.82422 2,2 H 614.5918 c -2.79937,-0.14011 -2.79937,4.13425 0,3.99414 h 40.74414 l -2.00196,2.00195 7.00782,-2.00195 3.64843,-1.04297 3.33789,-0.95312 -3.33593,-0.95313 -3.65821,-1.04492 z"
         transform="matrix(0.26458333,0,0,0.26458333,75.428452,80.52422)"
         id="path5165"
         inkscape:connector-curvature="0"
         sodipodi:nodetypes="cccccccccccc" />
    </g>
    <g
       id="g7265"
       style="fill:#000000;fill-opacity:0.69538462;stroke:none;stroke-opacity:1;stroke-width:3.77952766;stroke-miterlimit:4;stroke-dasharray:none;font-variant-east_asian:normal;opacity:1;vector-effect:none;stroke-linecap:round;stroke-linejoin:round;stroke-dashoffset:0;marker:none">
      <path
         style="color:#000000;font-style:normal;font-variant:normal;font-weight:normal;font-stretch:normal;font-size:medium;line-height:normal;font-family:sans-serif;font-variant-ligatures:normal;font-variant-position:normal;font-variant-caps:normal;font-variant-numeric:normal;font-variant-alternates:normal;font-feature-settings:normal;text-indent:0;text-align:start;text-decoration:none;text-decoration-line:none;text-decoration-style:solid;text-decoration-color:#000000;letter-spacing:normal;word-spacing:normal;text-transform:none;writing-mode:lr-tb;direction:ltr;text-orientation:mixed;dominant-baseline:auto;baseline-shift:baseline;text-anchor:start;white-space:normal;shape-padding:0;clip-rule:nonzero;display:inline;overflow:visible;visibility:visible;opacity:1;isolation:auto;mix-blend-mode:normal;color-interpolation:sRGB;color-interpolation-filters:linearRGB;solid-color:#000000;solid-opacity:1;vector-effect:none;fill:#000000;fill-opacity:0.69538462;fill-rule:evenodd;stroke:none;stroke-width:14.28482913;stroke-linecap:round;stroke-linejoin:round;stroke-miterlimit:4;stroke-dasharray:none;stroke-dashoffset:0;stroke-opacity:1;marker:none;color-rendering:auto;image-rendering:auto;shape-rendering:auto;text-rendering:auto;enable-background:accumulate;font-variant-east_asian:normal"
         d="m 627.49805,291.94531 -6.99024,1.99805 -3.54101,1.01172 -3.46289,0.99023 3.46289,0.98828 3.53711,1.01172 6.99414,1.99805 -1.99805,-1.99805 h 37.2207 c 2.66797,0 2.66797,-4.00195 0,-4.00195 H 625.5 Z"
         transform="matrix(0.26458333,0,0,0.26458333,75.428452,80.52422)"
         id="path5167"
         inkscape:connector-curvature="0"
         sodipodi:nodetypes="ccccccccsscc" />
    </g>
    <rect
       rx="2.9806757"
       y="145.34802"
       x="253.76781"
       height="23.217447"
       width="26.025024"
       id="rect5743"
       style="color:#000000;display:inline;overflow:visible;visibility:visible;fill:#e0e0e0;fill-opacity:1;fill-rule:evenodd;stroke:#000000;stroke-width:0.52916664;stroke-linecap:butt;stroke-linejoin:miter;stroke-miterlimit:4;stroke-dasharray:none;stroke-dashoffset:0;stroke-opacity:1;marker:none;enable-background:accumulate" />
    <path
       style="fill:#e535ab;fill-opacity:1;stroke-width:1"
       d="m 266.66988,164.97877 c -0.22227,-0.0346 -0.48734,-0.14202 -0.64946,-0.26312 -0.27464,-0.20513 -0.4639,-0.48134 -0.55607,-0.81153 -0.0332,-0.11925 -0.037,-0.15596 -0.0367,-0.36305 2.1e-4,-0.17138 0.007,-0.25508 0.0245,-0.32671 0.0133,-0.0529 0.0225,-0.0975 0.0204,-0.0989 -0.002,-0.002 -0.76333,-0.44072 -1.69168,-0.97618 l -1.6879,-0.97358 -0.079,0.075 c -0.35163,0.33394 -0.89981,0.4627 -1.37888,0.32391 -0.49215,-0.14258 -0.87415,-0.53472 -1.00689,-1.0336 -0.0325,-0.12196 -0.037,-0.16551 -0.0372,-0.36205 -2.8e-4,-0.19748 0.004,-0.23916 0.0361,-0.35894 0.11142,-0.41448 0.38233,-0.75149 0.75573,-0.94013 0.0681,-0.0344 0.16707,-0.0757 0.21998,-0.0917 l 0.0962,-0.0292 v -1.95216 -1.95217 l -0.10051,-0.0305 c -0.0553,-0.0168 -0.15427,-0.0575 -0.21998,-0.0906 -0.37291,-0.18748 -0.63716,-0.51312 -0.75174,-0.92641 -0.0335,-0.12105 -0.0375,-0.1591 -0.0378,-0.36552 -2.8e-4,-0.25488 0.0168,-0.35373 0.0948,-0.54457 0.20866,-0.51064 0.66254,-0.85071 1.21042,-0.90692 0.40886,-0.042 0.84419,0.10653 1.13403,0.38677 l 0.0652,0.0631 1.68764,-0.97388 c 0.92821,-0.53564 1.68935,-0.9754 1.69142,-0.97725 0.002,-0.002 -0.007,-0.0466 -0.0204,-0.0996 -0.018,-0.0716 -0.0243,-0.15534 -0.0245,-0.3267 -2.6e-4,-0.2071 0.003,-0.24382 0.0367,-0.36306 0.1153,-0.41307 0.38341,-0.74414 0.7516,-0.92813 0.22866,-0.11427 0.3952,-0.1531 0.65645,-0.1531 0.1037,0 0.22626,0.008 0.27236,0.0179 0.56014,0.11953 0.98331,0.51395 1.13337,1.05637 0.0601,0.21711 0.0589,0.5479 -0.003,0.76828 -0.007,0.0249 0.1904,0.14257 1.67243,0.99719 0.92418,0.53291 1.68564,0.97181 1.69212,0.9753 0.007,0.004 0.041,-0.0219 0.0769,-0.0565 0.49229,-0.47597 1.29886,-0.52421 1.85434,-0.11088 0.20577,0.15313 0.34677,0.32666 0.4596,0.56563 0.10171,0.21547 0.12455,0.32611 0.12455,0.60319 0,0.26417 -0.0186,0.36273 -0.10842,0.57574 -0.15836,0.37538 -0.51495,0.6979 -0.8998,0.81379 l -0.10125,0.0304 v 1.95253 1.95254 l 0.0803,0.0231 c 0.35711,0.10288 0.70468,0.39217 0.87547,0.7287 0.25868,0.5097 0.20542,1.09493 -0.14109,1.55018 -0.14243,0.18714 -0.30791,0.31926 -0.53927,0.43056 -0.53186,0.2559 -1.198,0.14605 -1.62158,-0.2674 -0.0488,-0.0477 -0.0877,-0.0749 -0.10007,-0.0701 -0.023,0.008 -3.31774,1.90745 -3.33409,1.9213 -0.007,0.005 0.002,0.0589 0.0186,0.11987 0.046,0.17443 0.0518,0.44844 0.0133,0.63418 -0.0725,0.35084 -0.27117,0.66483 -0.55851,0.88299 -0.12681,0.0963 -0.34514,0.19978 -0.5108,0.24216 -0.15705,0.0402 -0.41621,0.0558 -0.55835,0.0336 z m 2.99591,-3.40642 c 0.89494,-0.51615 1.63231,-0.9433 1.63861,-0.94923 0.007,-0.007 0.007,-0.0335 0.002,-0.0615 l -0.009,-0.0507 h -4.42434 -4.42435 l -0.007,0.0331 c -0.007,0.0309 0.10951,0.10005 1.66508,0.99793 0.91928,0.53062 1.68188,0.96876 1.69465,0.97366 0.0159,0.007 0.0474,-0.0132 0.0999,-0.0611 0.22325,-0.20399 0.53843,-0.34115 0.83485,-0.36333 0.43766,-0.0328 0.8294,0.10053 1.12765,0.38365 l 0.091,0.0864 0.0419,-0.0252 c 0.023,-0.0138 0.77412,-0.44755 1.66905,-0.96371 z m 1.66257,-1.86792 c 0.0657,-0.19373 0.1818,-0.38827 0.32341,-0.5421 l 0.0525,-0.0571 -2.20052,-3.81087 c -1.21029,-2.09596 -2.20581,-3.81631 -2.21227,-3.82298 -0.007,-0.007 -0.0675,-0.002 -0.1397,0.0114 -0.16527,0.0304 -0.41184,0.0301 -0.56646,-5.5e-4 -0.07,-0.0139 -0.12424,-0.0186 -0.13108,-0.0112 -0.007,0.007 -1.00171,1.72736 -2.21179,3.82327 l -2.20013,3.81074 0.0841,0.0977 c 0.13475,0.15652 0.22899,0.31897 0.28908,0.4983 0.0167,0.0499 0.0331,0.0986 0.0364,0.10824 0.005,0.0139 0.89622,0.0168 4.42165,0.0139 l 4.41561,-0.004 z m -7.66675,-4.7647 c 1.21291,-2.10035 2.20332,-3.82475 2.20091,-3.83198 -0.0185,-0.0555 -0.0502,-0.0385 -1.73591,0.93417 -0.9288,0.53589 -1.68982,0.97513 -1.69117,0.97611 -0.002,7.7e-4 0.007,0.0394 0.0183,0.0854 0.0114,0.046 0.0241,0.16851 0.0283,0.27218 0.007,0.15911 0.003,0.21127 -0.0225,0.33446 -0.10646,0.51476 -0.4619,0.92074 -0.95584,1.09174 l -0.11321,0.0391 -0.004,1.94481 c -0.002,1.06966 -2.8e-4,1.95312 0.003,1.96326 0.0283,0.0743 0.0409,0.0531 2.2714,-3.80934 z m 8.6824,3.81428 c 0.0139,-0.008 0.0168,-0.41053 0.0139,-1.96206 l -0.004,-1.95094 -0.1132,-0.0392 c -0.49453,-0.1712 -0.84926,-0.57635 -0.95585,-1.09173 -0.0254,-0.12319 -0.029,-0.17536 -0.0225,-0.33446 0.004,-0.10367 0.0165,-0.22456 0.0274,-0.26864 0.0146,-0.0585 0.0157,-0.0835 0.005,-0.0925 -0.008,-0.007 -0.76958,-0.44736 -1.69114,-0.97912 -1.68876,-0.97445 -1.72238,-0.99245 -1.71699,-0.91947 7.8e-4,0.0137 3.5369,6.15051 4.37332,7.59023 0.0344,0.0592 0.0512,0.0688 0.0842,0.0478 z"
       id="path5741"
       inkscape:connector-curvature="0" />
    <path
       style="color:#000000;font-style:normal;font-variant:normal;font-weight:normal;font-stretch:normal;font-size:medium;line-height:normal;font-family:sans-serif;font-variant-ligatures:normal;font-variant-position:normal;font-variant-caps:normal;font-variant-numeric:normal;font-variant-alternates:normal;font-feature-settings:normal;text-indent:0;text-align:start;text-decoration:none;text-decoration-line:none;text-decoration-style:solid;text-decoration-color:#000000;letter-spacing:normal;word-spacing:normal;text-transform:none;writing-mode:lr-tb;direction:ltr;text-orientation:mixed;dominant-baseline:auto;baseline-shift:baseline;text-anchor:start;white-space:normal;shape-padding:0;clip-rule:nonzero;display:inline;overflow:visible;visibility:visible;opacity:1;isolation:auto;mix-blend-mode:normal;color-interpolation:sRGB;color-interpolation-filters:linearRGB;solid-color:#000000;solid-opacity:1;vector-effect:none;fill:#ddbaa5;fill-opacity:1;fill-rule:evenodd;stroke:#855c40;stroke-width:1.05833328;stroke-linecap:round;stroke-linejoin:round;stroke-miterlimit:4;stroke-dasharray:none;stroke-dashoffset:0;stroke-opacity:1;marker:none;paint-order:normal;color-rendering:auto;image-rendering:auto;shape-rendering:auto;text-rendering:auto;enable-background:accumulate"
       d="m 199.90384,193.4965 c -0.70542,-0.25819 -2.31678,0.32206 -2.31831,-0.58754 0.10221,-6.9021 0.0833,-13.80671 0.29237,-20.70682 -3.38728,-0.0129 -6.77456,-0.0259 -10.16184,-0.0388 -0.20093,6.95779 -0.18447,13.9195 -0.28976,20.87905 -0.67284,0.072 -2.04549,-0.11458 -2.27186,0.12335 2.42453,2.12417 4.84906,4.24834 7.27359,6.37251 2.49189,-2.0139 4.98412,-4.02792 7.47581,-6.04175 z"
       id="path6336"
       inkscape:connector-curvature="0" />
    <path
       style="color:#000000;font-style:normal;font-variant:normal;font-weight:normal;font-stretch:normal;font-size:medium;line-height:normal;font-family:sans-serif;font-variant-ligatures:normal;font-variant-position:normal;font-variant-caps:normal;font-variant-numeric:normal;font-variant-alternates:normal;font-feature-settings:normal;text-indent:0;text-align:start;text-decoration:none;text-decoration-line:none;text-decoration-style:solid;text-decoration-color:#000000;letter-spacing:normal;word-spacing:normal;text-transform:none;writing-mode:lr-tb;direction:ltr;text-orientation:mixed;dominant-baseline:auto;baseline-shift:baseline;text-anchor:start;white-space:normal;shape-padding:0;clip-rule:nonzero;display:inline;overflow:visible;visibility:visible;opacity:1;isolation:auto;mix-blend-mode:normal;color-interpolation:sRGB;color-interpolation-filters:linearRGB;solid-color:#000000;solid-opacity:1;vector-effect:none;fill:#e6e6e6;fill-opacity:1;fill-rule:evenodd;stroke:#000000;stroke-width:1.05833328;stroke-linecap:round;stroke-linejoin:round;stroke-miterlimit:4;stroke-dasharray:none;stroke-dashoffset:0;stroke-opacity:1;marker:none;paint-order:normal;color-rendering:auto;image-rendering:auto;shape-rendering:auto;text-rendering:auto;enable-background:accumulate"
       d="m 230.33841,193.4965 c -1.28262,-0.0601 -2.89811,0.1888 -2.30595,-1.60709 0.0936,-6.5623 0.0776,-13.127 0.28001,-19.68727 -3.38728,-0.0129 -6.77456,-0.0259 -10.16184,-0.0388 -0.20492,6.95772 -0.17835,13.91961 -0.28976,20.87905 -0.74611,0.14205 -3.29545,-0.38346 -1.69459,0.62911 2.23211,1.95558 4.46422,3.91116 6.69632,5.86675 2.49189,-2.0139 4.98412,-4.02792 7.47581,-6.04175 z"
       id="path6338"
       inkscape:connector-curvature="0" />
    <path
       sodipodi:nodetypes="cccccccccc"
       inkscape:connector-curvature="0"
       id="path6340"
       d="m 258.95141,177.4289 2.32386,0.15059 -0.19278,17.66618 -0.10511,3.47759 10.16184,0.0388 0.0942,-3.12827 0.19559,-17.75078 2.38731,-0.0222 -7.38904,-6.47367 z"
       style="color:#000000;font-style:normal;font-variant:normal;font-weight:normal;font-stretch:normal;font-size:medium;line-height:normal;font-family:sans-serif;font-variant-ligatures:normal;font-variant-position:normal;font-variant-caps:normal;font-variant-numeric:normal;font-variant-alternates:normal;font-feature-settings:normal;text-indent:0;text-align:start;text-decoration:none;text-decoration-line:none;text-decoration-style:solid;text-decoration-color:#000000;letter-spacing:normal;word-spacing:normal;text-transform:none;writing-mode:lr-tb;direction:ltr;text-orientation:mixed;dominant-baseline:auto;baseline-shift:baseline;text-anchor:start;white-space:normal;shape-padding:0;clip-rule:nonzero;display:inline;overflow:visible;visibility:visible;opacity:1;isolation:auto;mix-blend-mode:normal;color-interpolation:sRGB;color-interpolation-filters:linearRGB;solid-color:#000000;solid-opacity:1;vector-effect:none;fill:#f7bfe4;fill-opacity:1;fill-rule:evenodd;stroke:#e535ab;stroke-width:1.05799995;stroke-linecap:round;stroke-linejoin:round;stroke-miterlimit:4;stroke-dasharray:2.1159999,2.1159999;stroke-dashoffset:0;stroke-opacity:1;marker:none;paint-order:normal;color-rendering:auto;image-rendering:auto;shape-rendering:auto;text-rendering:auto;enable-background:accumulate" />
    <path
       style="fill:#e535ab;fill-opacity:1;stroke-width:1"
       d="m 266.66988,164.97877 c -1.12597,0.0126 -1.0795,-1.41965 -1.52741,-2.02566 -1.09138,-0.39859 -1.85449,-1.55908 -3.07712,-1.59814 -0.61688,0.22705 -1.37317,0.47262 -1.93051,-0.0635 -0.7749,-0.54956 -0.73957,-1.87639 0.12793,-2.31604 0.60692,-0.22627 0.43048,-0.8299 0.43624,-1.3235 0,-0.93576 0,-1.87152 0,-2.80728 -1.29277,-0.19669 -1.50928,-2.30039 -0.27078,-2.74088 0.78797,-0.53196 1.74132,0.71779 2.43679,-0.0751 0.79971,-0.74545 2.19774,-0.85385 2.63733,-1.97401 -0.0471,-0.72012 0.4492,-1.40528 1.21375,-1.43233 0.74698,-0.10165 1.62593,0.48051 1.51711,1.29608 0.20999,1.00782 1.34183,1.30097 2.12925,1.73368 0.58127,0.41237 1.23884,0.82446 1.96057,0.4614 0.60982,-0.25428 1.35413,-0.0782 1.64494,0.5565 0.5146,0.81131 -0.0522,1.9625 -0.92243,2.24061 0,1.27975 0,2.55949 0,3.83924 1.2636,0.19815 1.51548,2.23014 0.32378,2.71456 -0.81517,0.49214 -1.678,-0.50507 -2.48094,-0.0361 -0.71183,0.79039 -1.9675,0.8987 -2.54893,1.8362 -0.18301,0.67319 -0.22345,1.52116 -1.09876,1.68147 -0.18492,0.0518 -0.38124,0.0648 -0.57081,0.0327 z m 2.99591,-3.40642 c 0.4454,-0.31942 1.33614,-0.52988 1.42569,-1.05473 -2.87376,-0.0157 -5.76289,-0.002 -8.64277,-0.007 0.94551,0.72062 2.05561,1.17853 3.03331,1.84956 0.87346,-0.15904 1.92904,-0.38923 2.61897,0.11521 0.52129,-0.30165 1.04312,-0.60237 1.5648,-0.90334 z m 1.66257,-1.86792 c 0.5488,-0.75098 -0.081,-1.62399 -0.55068,-2.22782 -0.60573,-0.69568 -0.859,-1.5884 -1.3681,-2.34559 -0.70483,-1.22059 -1.41028,-2.44081 -2.11814,-3.65964 -0.9766,-0.11595 -1.49983,0.87836 -1.80889,1.64097 -0.31546,0.88816 -0.95547,1.58434 -1.3758,2.41681 -0.68821,1.19193 -1.37616,2.38401 -2.06447,3.57588 0.40186,0.89241 1.51529,0.85016 2.33129,0.73609 0.92653,-0.17052 1.84936,0.0352 2.78014,-0.0182 1.37847,-0.001 2.75694,-0.003 4.13541,-0.004 0.013,-0.0379 0.0264,-0.0778 0.0392,-0.11431 z m -7.66675,-4.7647 c 0.72591,-1.2849 1.49934,-2.54307 2.19015,-3.84767 -1.07215,0.74836 -2.5197,1.01482 -3.31155,2.12334 0.048,0.60825 -0.33839,1.13347 -0.82766,1.48507 -0.70672,0.51801 -0.18432,1.36354 -0.32356,2.06993 0.0282,0.51098 -0.14589,1.68454 0.16305,1.76548 0.74871,-1.17155 1.39782,-2.40262 2.10957,-3.59615 z m 8.6824,3.81428 c -0.16681,-1.29871 0.36802,-2.68874 -0.21274,-3.9227 -0.56807,-0.31573 -0.80569,-0.95369 -0.92292,-1.57213 -0.11332,-0.77463 -0.96129,-0.78882 -1.47932,-1.1467 -0.5783,-0.31594 -1.11531,-0.76951 -1.77261,-0.89864 1.40642,2.5135 2.86964,4.99454 4.30363,7.49228 -0.11473,0.0599 0.0793,0.0803 0.084,0.0479 z"
       id="path6342"
       inkscape:connector-curvature="0" />
    <text
       transform="matrix(0,1.0001242,-0.99987579,0,0,0)"
       id="text6364"
       y="-221.35599"
       x="184.3045"
       style="font-style:normal;font-variant:normal;font-weight:normal;font-stretch:normal;font-size:4.54712248px;line-height:125%;font-family:'Bitstream Vera Sans';-inkscape-font-specification:'Bitstream Vera Sans, Normal';font-variant-ligatures:normal;font-variant-caps:normal;font-variant-numeric:normal;font-feature-settings:normal;text-align:center;letter-spacing:0px;word-spacing:0px;writing-mode:lr-tb;text-anchor:middle;fill:#000000;fill-opacity:1;stroke:none;stroke-width:0.26458332px;stroke-linecap:butt;stroke-linejoin:miter;stroke-opacity:1"
       xml:space="preserve"><tspan
         id="tspan6362"
         style="stroke-width:0.26458332px"
         y="-221.35599"
         x="184.3045"
         sodipodi:role="line">HTML+</tspan></text>
    <text
       transform="scale(0.99905738,1.0009435)"
       id="text6368"
       y="149.85966"
       x="106.0825"
       style="font-style:normal;font-variant:normal;font-weight:normal;font-stretch:condensed;font-size:17.08246994px;line-height:125%;font-family:Impact;-inkscape-font-specification:'Impact, Condensed';font-variant-ligatures:normal;font-variant-caps:normal;font-variant-numeric:normal;font-feature-settings:normal;text-align:center;letter-spacing:0px;word-spacing:0px;writing-mode:lr-tb;text-anchor:middle;fill:#000000;fill-opacity:1;stroke:none;stroke-width:0.26458332px;stroke-linecap:round;stroke-linejoin:round;stroke-opacity:1"
       xml:space="preserve"><tspan
         style="font-style:normal;font-variant:normal;font-weight:normal;font-stretch:normal;font-size:3.66052914px;font-family:'Bitstream Vera Sans Mono';-inkscape-font-specification:'Bitstream Vera Sans Mono, Normal';font-variant-ligatures:normal;font-variant-caps:normal;font-variant-numeric:normal;font-feature-settings:normal;text-align:center;writing-mode:lr-tb;text-anchor:middle;stroke-width:0.26458332px;stroke-linecap:round;stroke-linejoin:round"
         y="149.85966"
         x="106.0825"
         id="tspan6366"
         sodipodi:role="line">query( `…` )</tspan></text>
  </g>
</svg>
